<?xml version="1.0" encoding="UTF-8" standalone="no"?>
<!-- Created with Inkscape (http://www.inkscape.org/) -->

<svg
   width="226.88029mm"
   height="74.838699mm"
   viewBox="0 0 226.88029 74.838699"
   version="1.1"
   id="svg1"
   xml:space="preserve"
   xmlns="http://www.w3.org/2000/svg"
   xmlns:svg="http://www.w3.org/2000/svg"><defs
     id="defs1" /><g
     id="layer1"
     transform="translate(221.35061,168.14089)"><rect
       style="fill:#d40000;fill-opacity:0.996078;stroke:#d40000;stroke-width:10;stroke-linejoin:miter;stroke-miterlimit:3;stroke-dasharray:none;stroke-opacity:0.996078;paint-order:markers stroke fill"
       id="rect1-8"
       width="187.52693"
       height="64.838692"
       x="-216.35062"
       y="-163.1409"
       rx="0"
       ry="0" /><rect
       style="fill:#d40000;fill-opacity:0.996078;stroke:#d40000;stroke-width:10;stroke-linejoin:miter;stroke-miterlimit:3;stroke-dasharray:none;stroke-opacity:0.996078;paint-order:markers stroke fill"
       id="rect1-3-4"
       width="29.353355"
       height="30.495438"
       x="-28.823671"
       y="-128.79764"
       rx="0"
       ry="0" /><path
       id="path1-4-1-5"
       style="fill:#ffffff;fill-opacity:1;stroke:#d40000;stroke-width:6.96312;stroke-linecap:round;stroke-miterlimit:3;stroke-opacity:0.996078;paint-order:markers stroke fill"
       d="m -196.39379,-163.14203 v 30.4953 h 16.35198 v -6.49754 -6.49754 l 9.07179,11.74709 v 35.61023 h 11.70627 v -34.36224 h 6.56394 v -30.4953 h -18.27021 v 12.59561 l -9.07179,-12.59561 z" /><path
       style="fill:#ffffff;fill-opacity:1;stroke:#d40000;stroke-width:7;stroke-linecap:round;stroke-miterlimit:3;stroke-opacity:0.996078;paint-order:markers stroke fill"
       d="m -108.45729,-163.15093 h 11.14336 v 8.03722 l 9.52692,-8.05502 h 14.37577 v 9.1968 l -14.37577,6.58563 14.40884,6.23599 v 8.45923 h -14.40884 l -9.52692,-7.16177 v 7.16177 h -11.14336 z"
       id="path3-5-2-0" /><path
       style="fill:#ffffff;fill-opacity:1;stroke:#d40000;stroke-width:7;stroke-linecap:round;stroke-miterlimit:3;stroke-opacity:0.996078;paint-order:markers stroke fill"
       d="m -67.46087,-128.75313 h 11.14336 v 8.03722 l 7.54338,-8.05502 h 8.55493 v 9.1968 l -8.55493,6.58563 8.588,6.23599 v 8.45923 h -8.588 l -7.54338,-7.16177 v 7.16177 h -11.14336 z"
       id="path3-5-2-4-3" /><path
       style="fill:#ffffff;fill-opacity:1;stroke:#d40000;stroke-width:7;stroke-linecap:round;stroke-miterlimit:3;stroke-opacity:0.996078;paint-order:markers stroke fill"
       d="m -73.37817,-98.28438 v -13.18424 h -23.76026 v -4.60133 h 23.76026 v -12.70988 h -32.9276 v 30.49545 z"
       id="path11-6-6-6" /><path
       style="fill:#ffffff;fill-opacity:1;stroke:#d40000;stroke-width:7;stroke-linecap:round;stroke-miterlimit:3;stroke-opacity:0.996078;paint-order:markers stroke fill"
       d="m -34.26883,-98.30218 v -7.76417 h 28.81166 v -3.18051 h -28.81166 v -19.55077 h 34.7985 v 8.41899 H -24.9144 v 2.99342 H 0.52967 v 19.08304 z"
       id="path12-3-0-1" /><path
       style="fill:#ffffff;fill-opacity:1;stroke:#d40000;stroke-width:7;stroke-linecap:square;stroke-linejoin:miter;stroke-miterlimit:3;stroke-opacity:0.996078;paint-order:markers stroke fill"
       d="m -147.74195,-163.14203 h 35.07912 v 7.74573 h -23.76026 v 2.99343 h 23.76026 v 9.0738 h -23.76026 v 2.99342 h 23.76026 v 7.67063 h -35.07912 z"
       id="path14-1-1-0" /><path
       style="fill:#ffffff;fill-opacity:1;stroke:#d40000;stroke-width:7;stroke-linecap:round;stroke-miterlimit:3;stroke-opacity:0.996078;paint-order:markers stroke fill"
       d="m -152.69982,-98.28438 h 40.03698 v -30.49545 h -40.03698 z"
       id="path10-0-3-3" /><path
       style="baseline-shift:baseline;display:inline;overflow:visible;vector-effect:none;fill:#d40000;fill-opacity:0.996078;stroke:#d40000;stroke-linecap:round;stroke-miterlimit:3;stroke-opacity:0.996078;paint-order:markers stroke fill;enable-background:accumulate;stop-color:#000000"
       d="m -146.17291,-116.04909 v 4.5586 h 27.06641 v -4.5586 z"
       id="path13-0-7-3-0-2-2" /><path
       style="fill:#ffffff;fill-opacity:1;stroke:#d40000;stroke-width:7;stroke-linecap:round;stroke-miterlimit:3;stroke-opacity:0.996078;paint-order:markers stroke fill"
       d="m -69.17264,-132.68218 v -30.49545 h 40.34896 v 30.49545 z"
       id="path4-3-0-6" /><path
       style="baseline-shift:baseline;display:inline;overflow:visible;vector-effect:none;fill:#d40000;fill-opacity:0.996078;stroke:#d40000;stroke-linecap:round;stroke-miterlimit:3;stroke-opacity:0.996078;paint-order:markers stroke fill;enable-background:accumulate;stop-color:#000000"
       d="m -62.53136,-150.20921 v 4.5586 h 27.0664 v -4.5586 z"
       id="path13-0-7-3-0-2-9-1" /><path
       style="fill:#ffffff;fill-opacity:1;stroke:#d40000;stroke-width:7;stroke-linecap:round;stroke-miterlimit:3;stroke-opacity:0.996078;paint-order:markers stroke fill"
       d="m -216.3506,-163.14088 v 64.8565 h 39.42292 v -30.49545 h -23.01875 v -34.36105 z"
       id="path5-6-9-5" /><path
       style="baseline-shift:baseline;display:inline;overflow:visible;vector-effect:none;fill:#d40000;fill-opacity:0.996078;stroke:#d40000;stroke-width:0.946565;stroke-linecap:round;stroke-miterlimit:3;stroke-opacity:0.996078;paint-order:markers stroke fill;enable-background:accumulate;stop-color:#000000"
       d="m -211.35353,-116.04909 v 4.5586 h 24.25111 v -4.5586 z"
       id="path13-0-7-3-0-2-0-4" /></g></svg>
