# Blender 5.0.1
# www.blender.org
mtllib head.mtl
o Cylinder
v -0.382683 -0.587500 0.923880
v 0.000000 0.587500 -1.000000
v -0.707107 -0.587500 0.707107
v 0.382683 0.587500 -0.923880
v -0.923880 -0.587500 0.382683
v 0.707107 0.587500 -0.707107
v -1.000000 -0.587500 -0.000000
v 0.923880 0.587500 -0.382683
v -0.923880 -0.587500 -0.382683
v 1.000000 0.587500 -0.000000
v -0.707107 -0.587500 -0.707107
v 0.923880 0.587500 0.382683
v -0.382683 -0.587500 -0.923880
v 0.707107 0.587500 0.707107
v 0.000000 -0.587500 -1.000000
v 0.382683 0.587500 0.923880
v 0.382683 -0.587500 -0.923880
v 0.000000 0.587500 1.000000
v 0.707107 -0.587500 -0.707107
v -0.382683 0.587500 0.923880
v 0.923880 -0.587500 -0.382683
v -0.707107 0.587500 0.707107
v 1.000000 -0.587500 -0.000000
v -0.923880 0.587500 0.382683
v 0.923880 -0.587500 0.382683
v -1.000000 0.587500 -0.000000
v 0.707107 -0.587500 0.707107
v -0.923880 0.587500 -0.382683
v 0.382683 -0.587500 0.923880
v -0.707107 0.587500 -0.707107
v 0.000000 -0.587500 1.000000
v -0.382683 0.587500 -0.923880
v 0.371453 0.737500 -0.896768
v 0.000000 0.737500 -0.970655
v 0.686356 0.737500 -0.686356
v 0.896768 0.737500 -0.371453
v 0.970655 0.737500 -0.000000
v 0.896768 0.737500 0.371454
v 0.686356 0.737500 0.686356
v 0.371453 0.737500 0.896768
v 0.000000 0.737500 0.970655
v -0.371454 0.737500 0.896768
v -0.686356 0.737500 0.686356
v -0.896768 0.737500 0.371454
v -0.970655 0.737500 -0.000000
v -0.896768 0.737500 -0.371453
v -0.686356 0.737500 -0.686356
v -0.371454 0.737500 -0.896768
v 0.340536 0.887500 -0.822126
v 0.000000 0.887500 -0.889863
v 0.629228 0.887500 -0.629228
v 0.822126 0.887500 -0.340536
v 0.889863 0.887500 -0.000000
v 0.822126 0.887500 0.340536
v 0.629228 0.887500 0.629228
v 0.340536 0.887500 0.822126
v 0.000000 0.887500 0.889863
v -0.340536 0.887500 0.822126
v -0.629228 0.887500 0.629228
v -0.822126 0.887500 0.340536
v -0.889863 0.887500 -0.000000
v -0.822126 0.887500 -0.340536
v -0.629228 0.887500 -0.629228
v -0.340536 0.887500 -0.822126
v 0.229452 0.987500 -0.553945
v 0.000000 0.987500 -0.599586
v 0.423971 0.987500 -0.423971
v 0.553945 0.987500 -0.229451
v 0.599586 0.987500 -0.000000
v 0.553945 0.987500 0.229451
v 0.423971 0.987500 0.423971
v 0.229452 0.987500 0.553945
v 0.000000 0.987500 0.599586
v -0.229451 0.987500 0.553945
v -0.423971 0.987500 0.423971
v -0.553945 0.987500 0.229451
v -0.599586 0.987500 -0.000000
v -0.553945 0.987500 -0.229451
v -0.423971 0.987500 -0.423971
v -0.229451 0.987500 -0.553945
v 0.371453 -0.737500 0.896768
v 0.000000 -0.737500 0.970655
v 0.686356 -0.737500 0.686356
v 0.896768 -0.737500 0.371454
v 0.970655 -0.737500 -0.000000
v 0.896768 -0.737500 -0.371453
v 0.686356 -0.737500 -0.686356
v 0.371453 -0.737500 -0.896768
v 0.000000 -0.737500 -0.970655
v -0.371454 -0.737500 -0.896768
v -0.686356 -0.737500 -0.686356
v -0.896768 -0.737500 -0.371453
v -0.970655 -0.737500 -0.000000
v -0.896768 -0.737500 0.371454
v -0.686356 -0.737500 0.686356
v -0.371454 -0.737500 0.896768
v 0.340536 -0.887500 0.822126
v 0.000000 -0.887500 0.889863
v 0.629228 -0.887500 0.629228
v 0.822126 -0.887500 0.340536
v 0.889863 -0.887500 0.000000
v 0.822126 -0.887500 -0.340536
v 0.629228 -0.887500 -0.629228
v 0.340536 -0.887500 -0.822126
v 0.000000 -0.887500 -0.889863
v -0.340536 -0.887500 -0.822126
v -0.629228 -0.887500 -0.629228
v -0.822126 -0.887500 -0.340536
v -0.889863 -0.887500 0.000000
v -0.822126 -0.887500 0.340536
v -0.629228 -0.887500 0.629228
v -0.340536 -0.887500 0.822126
v 0.229452 -0.987500 0.553945
v 0.000000 -0.987500 0.599586
v 0.423971 -0.987500 0.423971
v 0.553945 -0.987500 0.229451
v 0.599586 -0.987500 0.000000
v 0.553945 -0.987500 -0.229451
v 0.423971 -0.987500 -0.423971
v 0.229452 -0.987500 -0.553945
v 0.000000 -0.987500 -0.599586
v -0.229451 -0.987500 -0.553945
v -0.423971 -0.987500 -0.423971
v -0.553945 -0.987500 -0.229451
v -0.599586 -0.987500 0.000000
v -0.553945 -0.987500 0.229451
v -0.423971 -0.987500 0.423971
v -0.229451 -0.987500 0.553945
vn -0.3601 0.3385 0.8693
vn -0.0000 -0.3385 -0.9410
vn -0.6654 0.3385 0.6654
vn 0.3601 -0.3385 -0.8693
vn -0.8693 0.3385 0.3601
vn 0.6654 -0.3385 -0.6654
vn -0.9410 0.3385 -0.0000
vn 0.8693 -0.3385 -0.3601
vn -0.8693 0.3385 -0.3601
vn 0.9410 -0.3385 -0.0000
vn -0.6654 0.3385 -0.6654
vn 0.8693 -0.3385 0.3601
vn -0.3601 0.3385 -0.8693
vn 0.6654 -0.3385 0.6654
vn -0.0000 0.3385 -0.9410
vn 0.3601 -0.3385 0.8693
vn 0.3601 0.3385 -0.8693
vn -0.0000 -0.3385 0.9410
vn 0.6654 0.3385 -0.6654
vn -0.3601 -0.3385 0.8693
vn 0.8693 0.3385 -0.3601
vn -0.6654 -0.3385 0.6654
vn 0.9410 0.3385 -0.0000
vn -0.8693 -0.3385 0.3601
vn 0.8693 0.3385 0.3601
vn -0.9410 -0.3385 -0.0000
vn 0.6654 0.3385 0.6654
vn -0.8693 -0.3385 -0.3601
vn 0.3601 0.3385 0.8693
vn -0.6654 -0.3385 -0.6654
vn -0.0000 0.3385 0.9410
vn -0.3601 -0.3385 -0.8693
vn 0.3611 0.3311 -0.8718
vn -0.0000 0.3311 -0.9436
vn 0.6672 0.3311 -0.6672
vn 0.8718 0.3311 -0.3611
vn 0.9436 0.3311 -0.0000
vn 0.8718 0.3311 0.3611
vn 0.6672 0.3311 0.6672
vn 0.3611 0.3311 0.8718
vn -0.0000 0.3311 0.9436
vn -0.3611 0.3311 0.8718
vn -0.6672 0.3311 0.6672
vn -0.8718 0.3311 0.3611
vn -0.9436 0.3311 -0.0000
vn -0.8718 0.3311 -0.3611
vn -0.6672 0.3311 -0.6672
vn -0.3611 0.3311 -0.8718
vn 0.2573 0.7402 -0.6212
vn -0.0000 0.7402 -0.6723
vn 0.4754 0.7402 -0.4754
vn 0.6212 0.7402 -0.2573
vn 0.6723 0.7402 -0.0000
vn 0.6212 0.7402 0.2573
vn 0.4754 0.7402 0.4754
vn 0.2573 0.7402 0.6212
vn -0.0000 0.7402 0.6723
vn -0.2573 0.7402 0.6212
vn -0.4754 0.7402 0.4754
vn -0.6212 0.7402 0.2573
vn -0.6723 0.7402 -0.0000
vn -0.6212 0.7402 -0.2573
vn -0.4754 0.7402 -0.4754
vn -0.2573 0.7402 -0.6212
vn 0.0708 0.9827 -0.1710
vn -0.0000 0.9827 -0.1851
vn 0.1309 0.9827 -0.1309
vn 0.1710 0.9827 -0.0708
vn 0.1851 0.9827 -0.0000
vn 0.1710 0.9827 0.0708
vn 0.1309 0.9827 0.1309
vn 0.0708 0.9827 0.1710
vn -0.0000 0.9827 0.1851
vn -0.0708 0.9827 0.1710
vn -0.1309 0.9827 0.1309
vn -0.1710 0.9827 0.0708
vn -0.1851 0.9827 -0.0000
vn -0.1710 0.9827 -0.0708
vn -0.1309 0.9827 -0.1309
vn -0.0708 0.9827 -0.1710
vn 0.3611 -0.3311 0.8718
vn -0.0000 -0.3311 0.9436
vn 0.6672 -0.3311 0.6672
vn 0.8718 -0.3311 0.3611
vn 0.9436 -0.3311 -0.0000
vn 0.8718 -0.3311 -0.3611
vn 0.6672 -0.3311 -0.6672
vn 0.3611 -0.3311 -0.8718
vn -0.0000 -0.3311 -0.9436
vn -0.3611 -0.3311 -0.8718
vn -0.6672 -0.3311 -0.6672
vn -0.8718 -0.3311 -0.3611
vn -0.9436 -0.3311 -0.0000
vn -0.8718 -0.3311 0.3611
vn -0.6672 -0.3311 0.6672
vn -0.3611 -0.3311 0.8718
vn 0.2573 -0.7402 0.6212
vn -0.0000 -0.7402 0.6723
vn 0.4754 -0.7402 0.4754
vn 0.6212 -0.7402 0.2573
vn 0.6723 -0.7402 -0.0000
vn 0.6212 -0.7402 -0.2573
vn 0.4754 -0.7402 -0.4754
vn 0.2573 -0.7402 -0.6212
vn -0.0000 -0.7402 -0.6723
vn -0.2573 -0.7402 -0.6212
vn -0.4754 -0.7402 -0.4754
vn -0.6212 -0.7402 -0.2573
vn -0.6723 -0.7402 -0.0000
vn -0.6212 -0.7402 0.2573
vn -0.4754 -0.7402 0.4754
vn -0.2573 -0.7402 0.6212
vn 0.0708 -0.9827 0.1710
vn -0.0000 -0.9827 0.1851
vn 0.1309 -0.9827 0.1309
vn 0.1710 -0.9827 0.0708
vn 0.1851 -0.9827 -0.0000
vn 0.1710 -0.9827 -0.0708
vn 0.1309 -0.9827 -0.1309
vn 0.0708 -0.9827 -0.1710
vn -0.0000 -0.9827 -0.1851
vn -0.0708 -0.9827 -0.1710
vn -0.1309 -0.9827 -0.1309
vn -0.1710 -0.9827 -0.0708
vn -0.1851 -0.9827 -0.0000
vn -0.1710 -0.9827 0.0708
vn -0.1309 -0.9827 0.1309
vn -0.0708 -0.9827 0.1710
vt 0.812500 1.000000
vt 0.875000 1.000000
vt 0.375000 1.000000
vt 0.437500 1.000000
vt 0.687500 1.000000
vt 0.750000 1.000000
vt 0.250000 1.000000
vt 0.312500 1.000000
vt 0.562500 1.000000
vt 0.625000 1.000000
vt 0.937500 1.000000
vt 0.125000 1.000000
vt 0.187500 1.000000
vt 0.500000 1.000000
vt 0.000000 1.000000
vt 0.062500 1.000000
vt 1.000000 1.000000
vt 0.341844 0.471731
vt 0.250000 0.490000
vt 0.158156 0.471731
vt 0.080294 0.419706
vt 0.028269 0.341844
vt 0.010000 0.250000
vt 0.028269 0.158156
vt 0.080294 0.080294
vt 0.158156 0.028269
vt 0.250000 0.010000
vt 0.341844 0.028269
vt 0.419706 0.080294
vt 0.471731 0.158156
vt 0.490000 0.250000
vt 0.471731 0.341844
vt 0.419706 0.419706
s 1
f 25/1/25 27/2/27 83/2/83 84/1/84
f 11/3/11 13/4/13 90/4/90 91/3/91
f 21/5/21 23/6/23 85/6/85 86/5/86
f 7/7/7 9/8/9 92/8/92 93/7/93
f 17/9/17 19/10/19 87/10/87 88/9/88
f 27/2/27 29/11/29 81/11/81 83/2/83
f 3/12/3 5/13/5 94/13/94 95/12/95
f 13/4/13 15/14/15 89/14/89 90/4/90
f 23/6/23 25/1/25 84/1/84 85/6/85
f 31/15/31 1/16/1 96/16/96 82/15/82
f 9/8/9 11/3/11 91/3/91 92/8/92
f 95/12/95 94/13/94 110/13/110 111/12/111
f 19/10/19 21/5/21 86/5/86 87/10/87
f 32/16/32 2/17/2 4/11/4 6/2/6 8/1/8 10/6/10 12/5/12 14/10/14 16/9/16 18/14/18 20/4/20 22/3/22 24/8/24 26/7/26 28/13/28 30/12/30
f 14/10/14 12/5/12 38/5/38 39/10/39
f 1/16/1 31/17/31 29/11/29 27/2/27 25/1/25 23/6/23 21/5/21 19/10/19 17/9/17 15/14/15 13/4/13 11/3/11 9/8/9 7/7/7 5/13/5 3/12/3
f 1/16/1 3/12/3 95/12/95 96/16/96
f 5/13/5 7/7/7 93/7/93 94/13/94
f 47/12/47 46/13/46 62/13/62 63/12/63
f 24/8/24 22/3/22 43/3/43 44/8/44
f 2/15/2 32/16/32 48/16/48 34/15/34
f 10/6/10 8/1/8 36/1/36 37/6/37
f 20/4/20 18/14/18 41/14/41 42/4/42
f 30/12/30 28/13/28 46/13/46 47/12/47
f 6/2/6 4/11/4 33/11/33 35/2/35
f 16/9/16 14/10/14 39/10/39 40/9/40
f 26/7/26 24/8/24 44/8/44 45/7/45
f 12/5/12 10/6/10 37/6/37 38/5/38
f 22/3/22 20/4/20 42/4/42 43/3/43
f 32/16/32 30/12/30 47/12/47 48/16/48
f 8/1/8 6/2/6 35/2/35 36/1/36
f 18/14/18 16/9/16 40/9/40 41/14/41
f 28/13/28 26/7/26 45/7/45 46/13/46
f 4/11/4 2/17/2 34/17/34 33/11/33
f 61/7/61 60/8/60 76/8/76 77/7/77
f 40/9/40 39/10/39 55/10/55 56/9/56
f 48/16/48 47/12/47 63/12/63 64/16/64
f 41/14/41 40/9/40 56/9/56 57/14/57
f 33/11/33 34/17/34 50/17/50 49/11/49
f 34/15/34 48/16/48 64/16/64 50/15/50
f 42/4/42 41/14/41 57/14/57 58/4/58
f 35/2/35 33/11/33 49/11/49 51/2/51
f 43/3/43 42/4/42 58/4/58 59/3/59
f 36/1/36 35/2/35 51/2/51 52/1/52
f 44/8/44 43/3/43 59/3/59 60/8/60
f 37/6/37 36/1/36 52/1/52 53/6/53
f 45/7/45 44/8/44 60/8/60 61/7/61
f 38/5/38 37/6/37 53/6/53 54/5/54
f 46/13/46 45/7/45 61/7/61 62/13/62
f 39/10/39 38/5/38 54/5/54 55/10/55
f 65/18/65 66/19/66 80/20/80 79/21/79 78/22/78 77/23/77 76/24/76 75/25/75 74/26/74 73/27/73 72/28/72 71/29/71 70/30/70 69/31/69 68/32/68 67/33/67
f 54/5/54 53/6/53 69/6/69 70/5/70
f 62/13/62 61/7/61 77/7/77 78/13/78
f 55/10/55 54/5/54 70/5/70 71/10/71
f 63/12/63 62/13/62 78/13/78 79/12/79
f 56/9/56 55/10/55 71/10/71 72/9/72
f 64/16/64 63/12/63 79/12/79 80/16/80
f 57/14/57 56/9/56 72/9/72 73/14/73
f 49/11/49 50/17/50 66/17/66 65/11/65
f 50/15/50 64/16/64 80/16/80 66/15/66
f 58/4/58 57/14/57 73/14/73 74/4/74
f 51/2/51 49/11/49 65/11/65 67/2/67
f 59/3/59 58/4/58 74/4/74 75/3/75
f 52/1/52 51/2/51 67/2/67 68/1/68
f 60/8/60 59/3/59 75/3/75 76/8/76
f 53/6/53 52/1/52 68/1/68 69/6/69
f 15/14/15 17/9/17 88/9/88 89/14/89
f 29/11/29 31/17/31 82/17/82 81/11/81
f 109/7/109 108/8/108 124/8/124 125/7/125
f 88/9/88 87/10/87 103/10/103 104/9/104
f 96/16/96 95/12/95 111/12/111 112/16/112
f 89/14/89 88/9/88 104/9/104 105/14/105
f 81/11/81 82/17/82 98/17/98 97/11/97
f 82/15/82 96/16/96 112/16/112 98/15/98
f 90/4/90 89/14/89 105/14/105 106/4/106
f 83/2/83 81/11/81 97/11/97 99/2/99
f 91/3/91 90/4/90 106/4/106 107/3/107
f 84/1/84 83/2/83 99/2/99 100/1/100
f 92/8/92 91/3/91 107/3/107 108/8/108
f 85/6/85 84/1/84 100/1/100 101/6/101
f 93/7/93 92/8/92 108/8/108 109/7/109
f 86/5/86 85/6/85 101/6/101 102/5/102
f 94/13/94 93/7/93 109/7/109 110/13/110
f 87/10/87 86/5/86 102/5/102 103/10/103
f 113/18/113 114/19/114 128/20/128 127/21/127 126/22/126 125/23/125 124/24/124 123/25/123 122/26/122 121/27/121 120/28/120 119/29/119 118/30/118 117/31/117 116/32/116 115/33/115
f 102/5/102 101/6/101 117/6/117 118/5/118
f 110/13/110 109/7/109 125/7/125 126/13/126
f 103/10/103 102/5/102 118/5/118 119/10/119
f 111/12/111 110/13/110 126/13/126 127/12/127
f 104/9/104 103/10/103 119/10/119 120/9/120
f 112/16/112 111/12/111 127/12/127 128/16/128
f 105/14/105 104/9/104 120/9/120 121/14/121
f 97/11/97 98/17/98 114/17/114 113/11/113
f 98/15/98 112/16/112 128/16/128 114/15/114
f 106/4/106 105/14/105 121/14/121 122/4/122
f 99/2/99 97/11/97 113/11/113 115/2/115
f 107/3/107 106/4/106 122/4/122 123/3/123
f 100/1/100 99/2/99 115/2/115 116/1/116
f 108/8/108 107/3/107 123/3/123 124/8/124
f 101/6/101 100/1/100 116/1/116 117/6/117
f 28/13/28 9/8/9 7/7/7 26/7/26
f 26/7/26 7/7/7 5/13/5 24/8/24
f 22/3/22 3/12/3 1/16/1 20/4/20
f 24/8/24 5/13/5 3/12/3 22/3/22
f 20/4/20 1/16/1 31/15/31 18/14/18
f 16/9/16 18/14/18 31/15/31 29/11/29
f 29/11/29 27/2/27 14/10/14 16/9/16
f 14/10/14 27/2/27 25/1/25 12/5/12
f 23/6/23 10/6/10 12/5/12 25/1/25
f 21/5/21 8/1/8 10/6/10 23/6/23
f 8/1/8 21/5/21 19/10/19 6/2/6
f 4/11/4 6/2/6 19/10/19 17/9/17
f 15/14/15 2/17/2 4/11/4 17/9/17
f 2/17/2 15/14/15 13/4/13 32/16/32
f 11/3/11 30/12/30 32/16/32 13/4/13
f 11/3/11 9/8/9 28/13/28 30/12/30
